<?xml version="1.0" encoding="UTF-8"?>
<svg width="88px" height="71px" viewBox="0 0 88 71" version="1.1" xmlns="http://www.w3.org/2000/svg" xmlns:xlink="http://www.w3.org/1999/xlink">
    <!-- Generator: Sketch 52.5 (67469) - http://www.bohemiancoding.com/sketch -->
    <title>Light-S</title>
    <desc>Created with Sketch.</desc>
    <g id="Page-1" stroke="none" stroke-width="1" fill="none" fill-rule="evenodd">
        <g id="folder" transform="translate(-1109.000000, -625.000000)" fill="#000000" fill-rule="nonzero">
            <g id="Symbols" transform="translate(490.000000, 620.000000)">
                <g id="Light-S" transform="translate(618.740000, 5.000000)">
                    <path d="M12.3867,70.707031 L77.3281,70.707031 C84.1152,70.707031 88.0215,66.84961 88.0215,59.2324 L88.0215,18.9004 C88.0215,11.332 84.1152,7.4258 76.4004,7.4258 L39.0469,7.4258 C36.2637,7.4258 34.75,6.8398 32.7969,5.1309 L30.502,3.2266 C28.0117,1.0293 26.1562,0.3945 22.3477,0.3945 L10.9707,0.3945 C4.4277,0.3945 0.76562,4.0078 0.76562,11.3809 L0.76562,59.2324 C0.76562,66.84961 4.6719,70.707031 12.3867,70.707031 Z M6.1855,11.6738 C6.1855,7.7676 8.2363,5.7656 12.0449,5.7656 L20.9805,5.7656 C23.666,5.7656 25.1797,6.3516 27.1816,8.1094 L29.4277,10.0625 C31.8691,12.1133 33.8711,12.8457 37.6797,12.8457 L76.3027,12.8457 C80.3066,12.8457 82.6016,14.9941 82.6016,19.1934 L82.6016,21.9277 L6.1855,21.9277 L6.1855,11.6738 Z M12.4844,65.28711 C8.4316,65.28711 6.1855,63.13867 6.1855,58.9395 L6.1855,27.0547 L82.6016,27.0547 L82.6016,58.9883 C82.6016,63.13867 80.3066,65.28711 76.3027,65.28711 L12.4844,65.28711 Z" id="Shape"></path>
                </g>
            </g>
        </g>
    </g>
</svg>